<?xml version="1.0" encoding="utf-8"?>
<!-- Generator: Adobe Illustrator 23.1.0, SVG Export Plug-In . SVG Version: 6.00 Build 0)  -->
<svg version="1.1" id="Camada_1" xmlns="http://www.w3.org/2000/svg" xmlns:xlink="http://www.w3.org/1999/xlink" x="0px" y="0px"
	 viewBox="0 0 450 450" style="enable-background:new 0 0 450 450;" xml:space="preserve">
<style type="text/css">
	.st0{fill:#17663A;}
	.st1{fill:#51BC5B;}
	.st2{fill:#5AB550;}
	.st3{fill:#287538;}
	.st4{fill:#33993D;}
</style>
<title>Souza Pilares</title>
<g>
	<path class="st0" d="M368,191.5c0,45.6-0.2,91.3,0.2,136.9c0.1,6.3-1.9,9-6.8,12.2c-43.3,28.2-86.5,56.7-129.7,85
		c-1.4,0.9-3,3.1-4.7,2.1c-1.7-0.9-0.7-3.4-0.7-5.1c-0.2-7.8,0.2-15.7-0.4-23.5c-0.3-5,1.4-7.8,5.6-10.4
		c24.2-15.5,48.2-31.4,72.4-46.9c3.9-2.5,5.1-5.2,5-9.6c-0.1-84.6,0-169.3-0.2-253.9c0-4.9,1.3-7.1,5.9-9.1
		c16.3-6.9,32.5-14.3,48.6-21.7c3.2-1.5,4.5-1.1,4.5,2.5c0,2.5,0.1,5,0.1,7.5C368,102.2,368,146.9,368,191.5z"/>
	<path class="st1" d="M131,205c0,42.6,0.1,85.3-0.1,127.9c0,4.2,1.4,6.6,4.8,8.8c24.9,16.1,49.7,32.4,74.7,48.5
		c2.7,1.8,3.8,3.7,3.7,6.9c-0.2,9.2-0.2,18.3-0.1,27.5c0,2.9-0.2,4.1-3.4,2c-15-10-30.2-19.8-45.3-29.8
		c-29.5-19.4-59-38.9-88.6-58.1c-3.8-2.5-4.6-5-4.6-9.2c0.1-92.6,0.1-185.2,0.1-277.8c0-1.2,0-2.3,0-3.5c-0.1-2.6,0.5-3.7,3.4-2.4
		c17.3,7.9,34.7,15.7,52.2,23.4c3.1,1.4,3.3,3.6,3.3,6.4C131,118.7,131,161.8,131,205z"/>
	<path class="st2" d="M227.4,370.7c-0.9-1.5-0.4-3.2-0.4-4.8c0-86,0-171.9-0.1-257.9c0-3.8,1.2-5.3,4.8-6.5
		c16.4-5.4,32.7-10.9,48.9-16.7c4-1.4,5.4-1.3,5.4,3.6c-0.1,80.8-0.1,161.6,0,242.4c0,3.5-1,5.7-4.2,7.6
		c-17,10.1-33.9,20.5-50.8,30.7C229.9,369.8,228.9,370.9,227.4,370.7z"/>
	<path class="st3" d="M214.6,371.5c-11.2-6.7-21.5-12.9-31.8-19.1c-8-4.8-15.8-9.7-23.8-14.5c-2-1.2-3.1-2.4-3.1-5
		c0.1-82.6,0.1-165.2,0.1-247.7c0-0.5,0.2-0.9,0.4-1.7c18.7,6.4,37.3,12.8,56,19.1c1.9,0.7,2.6,1.7,2.4,3.7c-0.1,0.8,0,1.7,0,2.5
		c0,85.6,0,171.2,0,256.7C214.6,367.1,214.6,368.9,214.6,371.5z"/>
	<path class="st4" d="M284,70.6c-20.4,7.1-40.2,13.9-60,20.9c-1.5,0.5-2.8,0.5-4.3,0c-20.7-6.9-41.4-13.8-63.1-21
		c6.9-2,12.9-3.7,18.9-5.4c13.8-3.9,27.7-7.8,41.4-11.9c4.3-1.3,8.1-0.2,12,0.9c17.1,5,34.2,10,51.4,15
		C281.4,69.3,282.4,69.9,284,70.6z"/>
</g>
</svg>
